<svg xmlns="http://www.w3.org/2000/svg" xmlns:xlink="http://www.w3.org/1999/xlink" width="65" height="65" viewBox="0 0 65 65">
  <defs>
    <filter id="Ellipse_8" x="0" y="0" width="65" height="65" filterUnits="userSpaceOnUse">
      <feOffset dy="3" input="SourceAlpha"/>
      <feGaussianBlur stdDeviation="3" result="blur"/>
      <feFlood flood-opacity="0.596"/>
      <feComposite operator="in" in2="blur"/>
      <feComposite in="SourceGraphic"/>
    </filter>
  </defs>
  <g id="Group_123" data-name="Group 123" transform="translate(-404 -1425)">
    <g transform="matrix(1, 0, 0, 1, 404, 1425)" filter="url(#Ellipse_8)">
      <circle id="Ellipse_8-2" data-name="Ellipse 8" cx="23.5" cy="23.5" r="23.5" transform="translate(9 6)" fill="#0d0f98" opacity="0.845"/>
    </g>
    <g id="favorite_white_48dp" transform="translate(420 1439)" opacity="0.845">
      <path id="Path_4" data-name="Path 4" d="M0,0H33.037V33.037H0Z" fill="none"/>
      <path id="Path_5" data-name="Path 5" d="M15.765,28.259l-2-1.817C6.68,20.014,2,15.774,2,10.571A7.5,7.5,0,0,1,9.571,3a8.243,8.243,0,0,1,6.194,2.877A8.243,8.243,0,0,1,21.96,3a7.5,7.5,0,0,1,7.571,7.571c0,5.2-4.68,9.443-11.769,15.885Z" transform="translate(0.753 1.13)" fill="#cf0c0c"/>
    </g>
  </g>
</svg>
